<?xml version="1.0" standalone="no"?>
<!DOCTYPE svg PUBLIC "-//W3C//DTD SVG 20010904//EN"
 "http://www.w3.org/TR/2001/REC-SVG-20010904/DTD/svg10.dtd">
<svg version="1.0" xmlns="http://www.w3.org/2000/svg"
 width="317.000000pt" height="317.000000pt" viewBox="0 0 317.000000 317.000000"
 preserveAspectRatio="xMidYMid meet">
<metadata>
Created by potrace 1.11, written by Peter Selinger 2001-2013
</metadata>
<g transform="translate(0.000000,317.000000) scale(0.100000,-0.100000)"
fill="#000000" stroke="none">
<path d="M2290 2708 c-34 -6 -279 -8 -646 -4 -380 3 -604 2 -627 -5 -49 -13
-99 -73 -153 -184 -71 -145 -84 -215 -84 -440 0 -137 4 -205 14 -241 8 -27 22
-86 30 -132 34 -181 67 -284 99 -311 8 -6 68 -21 134 -32 65 -11 161 -29 215
-40 168 -34 623 -20 823 26 33 7 107 19 165 25 154 17 258 37 285 54 12 8 30
36 39 62 37 110 31 251 -28 579 -42 231 -55 334 -64 490 l-7 119 -34 23 c-37
25 -70 27 -161 11z m-1010 -78 c47 -6 159 -25 250 -43 147 -28 184 -32 340
-32 125 0 206 6 285 19 126 22 171 17 206 -20 l24 -26 2 -291 c1 -161 7 -360
13 -444 13 -166 9 -188 -41 -225 -46 -34 -336 -99 -529 -117 -63 -7 -162 -19
-220 -27 -122 -19 -272 -13 -438 17 -113 20 -143 34 -172 82 -18 29 -20 52
-20 279 0 201 4 283 24 440 13 106 27 220 31 253 8 65 17 88 48 123 24 26 63
28 197 12z"/>
<path d="M2074 2457 c-3 -8 -4 -36 -2 -63 3 -42 6 -49 26 -52 21 -3 33 -32 12
-32 -5 0 -16 -12 -24 -27 -12 -23 -35 -34 -157 -75 -95 -32 -146 -45 -153 -38
-15 15 -57 12 -75 -4 -14 -12 -35 -11 -151 9 -129 22 -149 21 -150 -6 0 -3 56
-36 125 -74 70 -39 121 -73 116 -78 -5 -5 -18 -4 -30 2 -26 14 -58 0 -70 -32
-6 -16 -38 -31 -146 -67 -76 -25 -140 -51 -143 -58 -2 -6 63 11 144 38 111 38
151 47 161 39 19 -16 16 -29 -7 -29 -18 0 -20 -7 -20 -60 l0 -60 60 0 60 0 0
60 c0 57 -1 60 -25 60 -30 0 -31 4 -4 31 18 18 26 19 79 11 48 -7 60 -6 65 6
7 19 -1 29 -38 48 l-31 16 29 15 c26 14 30 14 42 -3 7 -10 13 -24 13 -31 0 -7
5 -13 11 -13 7 0 9 8 5 20 -3 11 -9 28 -12 38 -4 14 24 33 151 101 86 46 159
81 162 77 5 -5 -7 -59 -24 -102 -3 -8 1 -14 9 -14 7 0 20 22 28 52 8 28 20 53
27 55 6 3 32 -23 56 -57 25 -34 47 -57 51 -52 3 4 -13 34 -35 65 -30 42 -38
62 -33 81 4 17 0 30 -15 45 -28 28 -26 39 7 43 26 3 27 5 27 63 l0 60 -58 3
c-42 2 -59 -1 -63 -11z m101 -52 l0 -40 -40 0 c-36 0 -40 2 -43 28 -6 47 4 59
45 55 37 -3 38 -4 38 -43z m-293 -261 c-57 -31 -106 -53 -109 -50 -17 17 30
52 103 77 118 41 120 34 6 -27z m-309 7 c82 -14 113 -23 128 -40 11 -11 26
-21 34 -21 27 0 16 -19 -22 -38 l-36 -19 -116 65 c-64 35 -118 66 -120 68 -8
7 24 4 132 -15z m139 -161 l33 -20 -30 1 c-16 1 -41 4 -55 8 -24 7 -24 7 -5
19 25 14 19 15 57 -8z m-82 -140 l0 -40 -40 0 -40 0 0 40 0 40 40 0 40 0 0
-40z"/>
<path d="M1290 2321 c0 -57 1 -59 29 -63 16 -2 45 -2 65 0 l36 4 0 59 0 59
-65 0 -65 0 0 -59z m110 -1 l0 -40 -45 0 -45 0 0 40 0 40 45 0 45 0 0 -40z"/>
<path d="M1269 2029 c-67 -150 -64 -142 -50 -138 11 4 121 232 121 251 0 29
-23 -8 -71 -113z"/>
<path d="M2138 2073 c-32 -8 -20 -26 13 -19 17 3 40 6 50 6 11 0 19 5 19 10 0
10 -49 12 -82 3z"/>
<path d="M1933 2014 c-40 -19 -73 -39 -73 -45 0 -6 4 -9 8 -7 85 34 160 73
156 80 -7 11 -10 10 -91 -28z"/>
<path d="M2260 2010 c0 -5 -11 -10 -25 -10 -24 0 -25 -2 -25 -65 l0 -65 60 0
60 0 0 65 c0 63 -1 65 -25 65 -14 0 -25 5 -25 10 0 6 -4 10 -10 10 -5 0 -10
-4 -10 -10z m50 -75 l0 -45 -40 0 -40 0 0 45 0 45 40 0 40 0 0 -45z"/>
<path d="M1800 1890 c0 -5 -11 -10 -25 -10 -24 0 -25 -3 -25 -60 l0 -60 65 0
65 0 0 60 c0 57 -1 60 -24 60 -14 0 -28 5 -31 10 -3 6 -10 10 -16 10 -5 0 -9
-4 -9 -10z m60 -70 l0 -40 -45 0 -45 0 0 40 0 40 45 0 45 0 0 -40z"/>
<path d="M1088 1757 l-26 -53 54 -29 c29 -16 55 -27 57 -24 3 2 16 27 30 55
l26 51 -25 11 c-13 7 -24 16 -24 21 0 5 -8 9 -17 9 -10 0 -25 2 -33 6 -12 5
-22 -7 -42 -47z m82 8 l30 -15 -17 -35 c-19 -40 -23 -41 -63 -20 l-30 15 17
35 c19 40 23 41 63 20z"/>
<path d="M2340 1310 c-237 -8 -612 -38 -828 -65 -225 -29 -659 -126 -830 -186
-124 -44 -239 -106 -294 -160 -45 -42 -48 -49 -48 -95 0 -78 37 -265 58 -294
10 -14 34 -33 53 -43 43 -23 89 -18 264 28 201 53 468 104 600 115 67 6 136
15 155 21 20 6 165 15 325 20 742 21 913 28 948 39 26 8 45 23 64 51 29 43 28
23 5 386 -13 190 -31 197 -472 183z m-786 -156 c19 -18 21 -65 4 -82 -7 -7
-24 -12 -38 -12 -33 0 -50 17 -50 49 0 50 52 78 84 45z m470 -45 c30 -24 34
-63 10 -97 -11 -16 -25 -22 -54 -22 -67 0 -93 68 -45 115 30 30 54 31 89 4z
m393 -21 c46 -43 16 -118 -47 -118 -61 0 -91 72 -48 117 27 29 65 29 95 1z
m-1269 0 c17 -17 15 -43 -4 -59 -31 -26 -70 25 -44 56 15 18 32 19 48 3z m272
-18 c24 -24 25 -38 4 -68 -29 -41 -94 -19 -94 33 0 24 33 55 57 55 7 0 22 -9
33 -20z m855 -115 c30 -30 31 -54 4 -89 -40 -51 -119 -25 -119 40 0 66 69 96
115 49z m-721 -37 c8 -22 6 -32 -9 -48 -23 -26 -71 -26 -85 -1 -25 49 -3 83
50 79 27 -2 37 -9 44 -30z m-414 2 c24 -24 25 -47 3 -72 -33 -36 -93 -13 -93
37 0 24 33 55 57 55 7 0 22 -9 33 -20z m-352 -2 c7 -7 12 -24 12 -38 0 -14 -5
-31 -12 -38 -7 -7 -24 -12 -38 -12 -14 0 -31 5 -38 12 -15 15 -15 61 0 76 15
15 61 15 76 0z m203 -14 c17 -21 0 -49 -31 -49 -31 0 -48 28 -31 49 8 9 21 16
31 16 10 0 23 -7 31 -16z m1114 -29 c30 -30 31 -54 4 -89 -40 -50 -119 -24
-119 40 0 68 68 97 115 49z m-823 -10 c17 -38 -3 -75 -41 -75 -50 0 -74 38
-51 81 17 30 77 26 92 -6z m122 -28 c36 -26 -4 -84 -41 -61 -24 15 -27 38 -8
58 20 19 26 20 49 3z m-326 -69 c28 -28 1 -98 -36 -98 -41 0 -69 69 -40 98 15
15 61 15 76 0z m-160 -30 c21 -21 14 -66 -13 -84 -23 -15 -27 -15 -50 0 -27
18 -34 63 -13 84 15 15 61 15 76 0z m-173 -53 c0 -25 -4 -30 -24 -30 -28 0
-47 25 -38 49 5 12 16 16 34 14 24 -3 28 -8 28 -33z"/>
</g>
</svg>
